<?xml version="1.0" encoding="UTF-8"?>
<svg id="rt" xmlns="http://www.w3.org/2000/svg" viewBox="0 0 1609.05 530.75">
  <defs>
    <style>
      .cls-1 {
        fill: #fff;
      }
    </style>
  </defs>
  <path class="cls-1" d="M378.13,88.49c20.42,0,29.28,23.04,35.76,39.86,2.33,6.06,7.79,20.24,10.5,20.24s8.17-14.18,10.51-20.24c6.47-16.82,15.34-39.86,35.76-39.86s29.28,23.04,35.76,39.86c2.33,6.06,7.79,20.24,10.51,20.24s8.18-14.18,10.51-20.24c6.48-16.82,15.34-39.86,35.76-39.86v52.61c-2.72,0-8.18,14.18-10.51,20.24-6.47,16.82-15.34,39.86-35.76,39.86s-29.28-23.04-35.76-39.86c-2.33-6.06-7.79-20.24-10.51-20.24s-8.17,14.18-10.51,20.24c-6.47,16.82-15.39,40.41-35.81,40.41s-29.23-23.59-35.71-40.41c-2.33-6.06-7.79-20.24-10.5-20.24"/>
  <path class="cls-1" d="M618.02,43.01v58.36h.67c9.47-10.95,20.93-16.42,34.39-16.42s22.71,3.92,29.51,11.76c6.8,7.84,10.21,18.42,10.21,31.73v73.22h-41.94v-63.02c0-13.02-5.25-19.53-15.75-19.53-5.18,0-9.32,2.04-12.43,6.1-3.11,4.07-4.66,9.21-4.66,15.42v61.02h-41.94V43.01h41.94Z"/>
  <path class="cls-1" d="M707,74.74v-31.73h41.94v31.73h-41.94ZM707,201.66v-113.16h41.94v113.16h-41.94Z"/>
  <path class="cls-1" d="M758.03,113.79v-25.3h14.65v-36.61h41.05v36.61h21.52v25.3h-21.52v45.93c0,3.55.85,6.21,2.55,7.99,1.7,1.78,4.11,2.74,7.21,2.88,3.11.15,6.88.08,11.32-.22v30.84c-7.4,1.78-14.28,2.66-20.64,2.66-14.35,0-24.85-2.55-31.51-7.66-6.66-5.1-9.99-14.16-9.99-27.18v-55.25h-14.65Z"/>
  <path class="cls-1" d="M939.61,205.21c-18.49,0-33.47-5.62-44.93-16.86-11.47-11.24-17.2-25.59-17.2-43.05s5.73-31.84,17.2-43.16c11.46-11.32,26.44-16.97,44.93-16.97,15.68,0,28.59,4.18,38.72,12.54,10.13,8.36,15.94,19.27,17.42,32.73h-40.38c-2.37-10.65-7.77-15.98-16.2-15.98-12.72,0-19.08,10.28-19.08,30.84,0,9.62,1.66,17.09,4.99,22.41,3.33,5.33,8.17,7.99,14.53,7.99,9.76,0,15.23-6.58,16.42-19.75h40.38c0,14.2-5.29,25.96-15.87,35.28-10.58,9.32-24.22,13.98-40.94,13.98Z"/>
  <path class="cls-1" d="M1108.46,188.35c-11.24,11.24-26.18,16.86-44.82,16.86s-33.66-5.62-45.04-16.86c-11.39-11.24-17.09-25.59-17.09-43.05s5.69-31.84,17.09-43.16c11.39-11.32,26.41-16.97,45.04-16.97s33.58,5.66,44.82,16.97c11.24,11.32,16.86,25.7,16.86,43.16s-5.62,31.81-16.86,43.05ZM1063.2,177.25c6.36,0,11.21-2.88,14.53-8.65,3.33-5.77,4.99-13.54,4.99-23.3s-1.66-17.53-4.99-23.3c-3.33-5.77-8.18-8.65-14.53-8.65s-10.95,2.85-14.2,8.54c-3.26,5.7-4.88,13.5-4.88,23.41s1.63,17.72,4.88,23.41c3.25,5.7,7.99,8.54,14.2,8.54Z"/>
  <path class="cls-1" d="M1238.05,188.35c-11.24,11.24-26.18,16.86-44.82,16.86s-33.66-5.62-45.04-16.86c-11.39-11.24-17.09-25.59-17.09-43.05s5.69-31.84,17.09-43.16c11.39-11.32,26.41-16.97,45.04-16.97s33.58,5.66,44.82,16.97c11.24,11.32,16.86,25.7,16.86,43.16s-5.62,31.81-16.86,43.05ZM1192.78,177.25c6.36,0,11.21-2.88,14.53-8.65,3.33-5.77,4.99-13.54,4.99-23.3s-1.66-17.53-4.99-23.3c-3.33-5.77-8.18-8.65-14.53-8.65s-10.95,2.85-14.2,8.54c-3.26,5.7-4.88,13.5-4.88,23.41s1.63,17.72,4.88,23.41c3.25,5.7,7.99,8.54,14.2,8.54Z"/>
  <path class="cls-1" d="M1265.34,239.16V88.49h39.94v13.31h.67c8.73-11.24,20.49-16.86,35.28-16.86s26.48,5.73,35.06,17.2c8.58,11.47,12.87,25.7,12.87,42.71,0,18.49-4.51,33.21-13.54,44.16-9.02,10.95-21.08,16.42-36.17,16.42-13.17,0-23.67-4.81-31.51-14.42h-.67v48.15h-41.94ZM1327.03,174.59c6.21,0,11.02-2.48,14.42-7.43,3.4-4.95,5.1-11.79,5.1-20.52s-1.7-15.61-5.1-20.64c-3.4-5.03-8.21-7.54-14.42-7.54s-11.5,2.66-15.42,7.99c-3.92,5.33-5.88,12.06-5.88,20.19s1.96,15.02,5.88,20.19c3.92,5.18,9.06,7.77,15.42,7.77Z"/>
  <path class="cls-1" d="M1456.83,204.77c-18.34,0-33.25-5.62-44.71-16.86-11.47-11.24-17.2-25.59-17.2-43.05s5.62-31.65,16.86-43.05c11.24-11.39,25.74-17.09,43.49-17.09,16.71,0,30.62,5.1,41.72,15.31,13.61,12.57,20.19,30.99,19.75,55.25h-80.77c2.66,14.06,10.06,21.08,22.19,21.08,7.39,0,12.65-2.81,15.75-8.43h40.61c-2.52,10.65-9.69,19.75-21.52,27.29-9.91,6.36-21.97,9.54-36.17,9.54ZM1456.17,112.9c-11.09,0-17.83,6.73-20.19,20.19h39.05c-.89-6.36-3-11.32-6.32-14.87-3.33-3.55-7.51-5.33-12.54-5.33Z"/>
  <path class="cls-1" d="M1567.11,88.49v17.09h.67c8.28-13.02,19.75-19.53,34.39-19.53,3.11,0,5.4.37,6.88,1.11v35.72h-.89c-12.43-2.07-22.04-.37-28.85,5.1-6.81,5.47-10.21,14.57-10.21,27.29v46.38h-41.94v-113.16h39.94Z"/>
  <path class="cls-1" d="M194.92,88.45c20.42,0,29.28,23.04,35.76,39.86,2.33,6.06,7.79,20.24,10.5,20.24s8.17-14.18,10.51-20.24c6.47-16.82,15.34-39.86,35.76-39.86s29.28,23.04,35.76,39.86c2.33,6.06,7.79,20.24,10.51,20.24s8.18-14.18,10.51-20.24c6.48-16.82,15.34-39.86,35.76-39.86v52.61c-2.72,0-8.18,14.18-10.51,20.24-6.47,16.82-15.34,39.86-35.76,39.86s-29.28-23.04-35.76-39.86c-2.33-6.06-7.79-20.24-10.51-20.24s-8.17,14.18-10.51,20.24c-6.47,16.82-15.39,40.41-35.81,40.41s-29.23-23.59-35.71-40.41c-2.33-6.06-7.79-20.24-10.5-20.24"/>
  <path class="cls-1" d="M9.86,88.67c20.42,0,29.28,23.04,35.76,39.86,2.33,6.06,7.79,20.24,10.5,20.24s8.17-14.18,10.51-20.24c6.47-16.82,15.34-39.86,35.76-39.86s29.28,23.04,35.76,39.86c2.33,6.06,7.79,20.24,10.51,20.24s8.18-14.18,10.51-20.24c6.48-16.82,15.34-39.86,35.76-39.86v52.61c-2.72,0-8.18,14.18-10.51,20.24-6.47,16.82-15.34,39.86-35.76,39.86s-29.28-23.04-35.76-39.86c-2.33-6.06-7.79-20.24-10.51-20.24s-8.17,14.18-10.51,20.24c-6.47,16.82-15.39,40.41-35.81,40.41s-29.23-23.59-35.71-40.41c-2.33-6.06-7.79-20.24-10.5-20.24"/>
</svg>
